<?xml version="1.0" encoding="utf-8"?>
<!-- Generator: Adobe Illustrator 18.0.0, SVG Export Plug-In . SVG Version: 6.00 Build 0)  -->
<!DOCTYPE svg PUBLIC "-//W3C//DTD SVG 1.1//EN" "http://www.w3.org/Graphics/SVG/1.1/DTD/svg11.dtd" [
	<!ENTITY ns_extend "http://ns.adobe.com/Extensibility/1.0/">
	<!ENTITY ns_ai "http://ns.adobe.com/AdobeIllustrator/10.0/">
	<!ENTITY ns_graphs "http://ns.adobe.com/Graphs/1.0/">
	<!ENTITY ns_vars "http://ns.adobe.com/Variables/1.0/">
	<!ENTITY ns_imrep "http://ns.adobe.com/ImageReplacement/1.0/">
	<!ENTITY ns_sfw "http://ns.adobe.com/SaveForWeb/1.0/">
	<!ENTITY ns_custom "http://ns.adobe.com/GenericCustomNamespace/1.0/">
	<!ENTITY ns_adobe_xpath "http://ns.adobe.com/XPath/1.0/">
]>
<svg version="1.1" id="Camada_1" xmlns:x="&ns_extend;" xmlns:i="&ns_ai;" xmlns:graph="&ns_graphs;"
	 xmlns="http://www.w3.org/2000/svg" xmlns:xlink="http://www.w3.org/1999/xlink" x="0px" y="0px" viewBox="0 0 1000 1000"
	 enable-background="new 0 0 1000 1000" xml:space="preserve">
<metadata>
	<sfw  xmlns="&ns_sfw;">
		<slices></slices>
		<sliceSourceBounds  width="666.7" height="669.9" x="170.5" y="-839.6" bottomLeftOrigin="true"></sliceSourceBounds>
	</sfw>
</metadata>
<g>
	<g>
		<path fill="#0C5693" d="M525.2,831.9c-0.6,0.5-1.2,0.9-1.9,1.4c-5.6,4.1-12.3,6.3-19.2,6.3h0c-7.1,0-14-2.3-19.6-6.6
			c-16.4-12.4-22.8-26.2-19.2-41.2c4-16.7,17.1-28.6,32.4-29.7c21.4-1.5,34,6.1,40.9,24.7C544.8,803,539.3,821.3,525.2,831.9z"/>
		<path fill="#0C5693" d="M837.2,512.9c-0.9,109.3-53.3,199-146,267.4c-7.6,5.6-16.5,9.9-25.5,13c-12.8,4.5-24.3,2.1-32.3-10.5
			c-8-12.4-6.7-24,3.5-33.7c12.6-12,26.1-23.2,39.8-34.1C808.4,611,809,401.7,677.9,296.8c-14.5-11.6-28.4-24.1-41.7-37
			c-8.7-8.5-12.9-19.3-3.8-30.2c9.3-11.2,19.6-20.9,36.1-12.4c41,21,74.2,51.1,101.2,88.1c31.6,43.3,55.7,90.3,63.9,143.9
			C836.3,467.4,835.8,486.2,837.2,512.9z"/>
		<path fill="#0C5693" d="M541.2,207.2c0,22.8-16.6,39.3-39.3,38.9c-20.7-0.3-38.2-18.9-37.3-39.6c0.9-21.4,17.9-37.1,39.7-36.8
			C525.1,169.9,541.2,186.2,541.2,207.2z"/>
		<path fill="#0C5693" d="M249.4,507.5c-0.5,20.7-18.3,37.1-40.1,37c-21.8-0.1-39-16.8-38.8-37.9c0.1-20.7,18.1-37.7,39.7-37.5
			C231.3,469.3,249.9,487.5,249.4,507.5z"/>
		<path fill="#0C5693" d="M283.9,358.7c0.1,22-15.1,37.6-36.6,37.4c-24-0.2-37.9-13.9-37.9-37.7c-0.1-22,16.1-39,37.3-39.3
			C267.5,319,283.8,336.3,283.9,358.7z"/>
		<path fill="#0C5693" d="M541.4,507.4c-0.2,21.3-16.2,37.1-37.4,37.1c-22.5,0-39-15.6-39.3-37.2c-0.3-21.3,16.7-38.4,38.4-38.7
			C524,468.4,541.6,486.2,541.4,507.4z"/>
		<path fill="#0C5693" d="M284.2,651.7c-0.5,21.8-15.8,35.9-38.4,35.6c-23.8-0.3-37-14.4-36.5-38.8c0.6-23.1,15.5-36.7,39.6-36
			C269.8,613,284.8,629.7,284.2,651.7z"/>
		<path fill="#0C5693" d="M393.6,763.2c0,21.6-15.5,37.7-36.5,38.2c-22.5,0.6-38.4-14.9-38.6-37.4c-0.2-23.1,14.5-38.5,37-38.7
			C378,725,393.6,740.5,393.6,763.2z"/>
		<path fill="#0C5693" d="M394,244c0.4,21.9-14.7,37.2-36.8,37.4c-24.4,0.3-38.5-13.1-38.6-36.6c-0.1-23.1,14.5-37.8,37.8-38
			C377.5,206.7,393.6,222.5,394,244z"/>
	</g>
</g>
</svg>
